<svg width="256" height="256" viewBox="0 0 256 256" fill="none" xmlns="http://www.w3.org/2000/svg">
<rect width="256" height="256" rx="65" fill="url(#paint0_linear_1_5)"/>
<path d="M137.06 186C132.14 186 126.86 185.64 121.22 184.92C115.7 184.2 110.24 182.7 104.84 180.42C99.44 178.14 94.52 174.78 90.08 170.34C85.64 165.9 82.1 160.02 79.46 152.7C76.82 145.26 75.5 136.08 75.5 125.16C75.5 113.16 77.54 102.24 81.62 92.4C85.7 82.56 91.88 74.7 100.16 68.82C108.44 62.94 118.82 60 131.3 60C140.3 60 147.62 60.78 153.26 62.34C159.02 63.9 163.52 65.94 166.76 68.46C170 70.98 172.22 73.74 173.42 76.74C174.74 79.74 175.4 82.74 175.4 85.74C175.4 88.86 174.56 91.86 172.88 94.74C171.32 97.62 168.8 99.9 165.32 101.58C161.96 103.14 158.48 103.86 154.88 103.74C151.28 103.5 148.04 103.38 145.16 103.38C138.92 103.38 134 104.52 130.4 106.8C126.92 108.96 124.46 112.32 123.02 116.88C124.94 116.76 127.04 116.7 129.32 116.7C131.72 116.58 134.18 116.52 136.7 116.52C141.62 116.52 146.3 116.64 150.74 116.88C155.3 117 158.48 117.24 160.28 117.6C164.48 118.44 167.66 120.12 169.82 122.64C171.98 125.04 173.06 127.8 173.06 130.92C173.06 133.92 172.04 136.62 170 139.02C167.96 141.42 164.66 143.1 160.1 144.06C158.42 144.42 155.18 144.72 150.38 144.96C145.7 145.08 140.78 145.14 135.62 145.14C133.58 145.14 131.6 145.14 129.68 145.14C127.76 145.02 126.02 144.96 124.46 144.96C126.14 148.68 128.66 151.62 132.02 153.78C135.5 155.82 139.94 156.84 145.34 156.84C147.38 156.84 150.32 156.66 154.16 156.3C158 155.82 161.72 156.12 165.32 157.2C171.08 159 173.96 162.78 173.96 168.54C173.96 171.66 172.88 174.6 170.72 177.36C168.68 180 164.96 182.1 159.56 183.66C154.28 185.22 146.78 186 137.06 186Z" fill="#FDFDFD"/>
<defs>
<linearGradient id="paint0_linear_1_5" x1="0" y1="0" x2="301.11" y2="75.0751" gradientUnits="userSpaceOnUse">
<stop stop-color="#D22C84"/>
<stop offset="0.06" stop-color="#FB6069"/>
<stop offset="0.72" stop-color="#2D84F1"/>
</linearGradient>
</defs>
</svg>
